# xmcd
#
# Track frame offsets:
#	150
#	14045
#	34922
#	46600
#	62262
#	72927
#	88075
#	99050
#	109277
#	122815
#	135772
#	153202
#	173420
#	186150
#	199465
#
# Disc length: 2805 seconds
#
# Revision: 1
# Processed by: cddbd v1.4PL0 Copyright (c) Steve Scherf et al.
# Submitted via: audiograbber 1.81.02
#
DISCID=bc0af30f
DTITLE=Joe Williams featuring The Thad Jones and Mel Lewis Orchestra - One More F
DTITLE=or My Baby
DYEAR=1900
DGENRE=Blues
TTITLE0=Hallelujah I Love Her So
TTITLE1=Nobody Knows the Way I Feel This Morning
TTITLE2=How Sweet It Is (To Be Loved By You)
TTITLE3=Evil Man Blues
TTITLE4=Young Man On The Way Up
TTITLE5=Hurry On Down
TTITLE6=When I Take My Sugar To Tea
TTITLE7=Honeysuckle Rose
TTITLE8=Did I Really Live
TTITLE9=Loneliness, Sorrow and Grief
TTITLE10=Imagination
TTITLE11=One More For My Baby (And One More For The Road)
TTITLE12=Everyone Wants To Be Loved (By Someone)
TTITLE13=Everybody Loves My Baby
TTITLE14=If I Were a Bell
EXTD=
EXTT0=
EXTT1=
EXTT2=
EXTT3=
EXTT4=
EXTT5=
EXTT6=
EXTT7=
EXTT8=
EXTT9=
EXTT10=
EXTT11=
EXTT12=
EXTT13=
EXTT14=
PLAYORDER=
